# xmcd
#
# Track frame offsets:
#  150
#  32500
#  49000
#  65550
#  90600
#  106725
#  130500
#  142225
#  151900
#  168225
#  180075
#  195625
#  220200
#  230700
#  251800
#  261800
#
# Disc length: 3736 seconds
#
# Revision: 3
# Processed by: cddbd v1.5.2PL0 Copyright (c) Steve Scherf et al.
# Submitted via: AltoMP3_Maker 3.0
#
DISCID=d70e9610
DTITLE=Various Artist - Ball and Chain Blues
DYEAR=1998
DGENRE=Blues
TTITLE0=Ball and Chain
TTITLE1=Got My Mojo Working
TTITLE2=Outside Help
TTITLE3=Honey Hush
TTITLE4=Messin' With The Kid
TTITLE5=One Bourbon, One Scotch, One Beer
TTITLE6=Well I Tried
TTITLE7=That's All Right Mama
TTITLE8=When I Lay My Burden Down
TTITLE9=St. Louis Blues
TTITLE10=I've Been Treated Wrong
TTITLE11=It Serves You Right To Suffer
TTITLE12=I've Been Abused
TTITLE13=Red House
TTITLE14=I'm Your Witchdoctor
TTITLE15=Ah'w Baby - Everything Gonna Be Alright
EXTD=
EXTT0=
EXTT1=
EXTT2=
EXTT3=
EXTT4=
EXTT5=
EXTT6=
EXTT7=
EXTT8=
EXTT9=
EXTT10=
EXTT11=
EXTT12=
EXTT13=
EXTT14=
EXTT15=
PLAYORDER=
